<svg viewBox="-16 -32 880 192" width="880" height="192" xmlns="http://www.w3.org/2000/svg"><desc>Generated with https://github.com/Platane/snk</desc><style>:root{--cb:#1b1f230a;--cs:#1a1a1a;--ce:#e68a00;--c0:#e68a00;--c1:#e0d100;--c2:#4d8b66;--c3:#3366cc;--c4:#3d145e}.c{shape-rendering:geometricPrecision;fill:var(--ce);stroke-width:1px;stroke:var(--cb);animation:none 29100ms linear infinite;width:12px;height:12px}@keyframes c0{35.39%{fill:var(--c1)}35.41%,100%{fill:var(--ce)}}.c.c0{fill:var(--c1);animation-name:c0}@keyframes c1{3.08%{fill:var(--c1)}3.1%,100%{fill:var(--ce)}}.c.c1{fill:var(--c1);animation-name:c1}@keyframes c2{3.43%{fill:var(--c1)}3.45%,100%{fill:var(--ce)}}.c.c2{fill:var(--c1);animation-name:c2}@keyframes c3{1.71%{fill:var(--c1)}1.73%,100%{fill:var(--ce)}}.c.c3{fill:var(--c1);animation-name:c3}@keyframes c4{2.74%{fill:var(--c1)}2.76%,100%{fill:var(--ce)}}.c.c4{fill:var(--c1);animation-name:c4}@keyframes c5{3.77%{fill:var(--c1)}3.79%,100%{fill:var(--ce)}}.c.c5{fill:var(--c1);animation-name:c5}@keyframes c6{2.05%{fill:var(--c1)}2.07%,100%{fill:var(--ce)}}.c.c6{fill:var(--c1);animation-name:c6}@keyframes c7{2.4%{fill:var(--c1)}2.42%,100%{fill:var(--ce)}}.c.c7{fill:var(--c1);animation-name:c7}@keyframes c8{4.11%{fill:var(--c1)}4.13%,100%{fill:var(--ce)}}.c.c8{fill:var(--c1);animation-name:c8}@keyframes c9{85.9%{fill:var(--c2)}85.92%,100%{fill:var(--ce)}}.c.c9{fill:var(--c2);animation-name:c9}@keyframes ca{86.24%{fill:var(--c2)}86.26%,100%{fill:var(--ce)}}.c.ca{fill:var(--c2);animation-name:ca}@keyframes cb{31.26%{fill:var(--c1)}31.28%,100%{fill:var(--ce)}}.c.cb{fill:var(--c1);animation-name:cb}@keyframes cc{95.52%{fill:var(--c4)}95.54%,100%{fill:var(--ce)}}.c.cc{fill:var(--c4);animation-name:cc}@keyframes cd{32.29%{fill:var(--c1)}32.31%,100%{fill:var(--ce)}}.c.cd{fill:var(--c1);animation-name:cd}@keyframes ce{5.14%{fill:var(--c1)}5.16%,100%{fill:var(--ce)}}.c.ce{fill:var(--c1);animation-name:ce}@keyframes cf{30.92%{fill:var(--c1)}30.94%,100%{fill:var(--ce)}}.c.cf{fill:var(--c1);animation-name:cf}@keyframes cg{84.87%{fill:var(--c2)}84.89%,100%{fill:var(--ce)}}.c.cg{fill:var(--c2);animation-name:cg}@keyframes ch{93.46%{fill:var(--c4)}93.48%,100%{fill:var(--ce)}}.c.ch{fill:var(--c4);animation-name:ch}@keyframes ci{5.83%{fill:var(--c1)}5.85%,100%{fill:var(--ce)}}.c.ci{fill:var(--c1);animation-name:ci}@keyframes cj{5.49%{fill:var(--c1)}5.51%,100%{fill:var(--ce)}}.c.cj{fill:var(--c1);animation-name:cj}@keyframes ck{30.57%{fill:var(--c1)}30.59%,100%{fill:var(--ce)}}.c.ck{fill:var(--c1);animation-name:ck}@keyframes cl{6.52%{fill:var(--c1)}6.54%,100%{fill:var(--ce)}}.c.cl{fill:var(--c1);animation-name:cl}@keyframes cm{6.18%{fill:var(--c1)}6.2%,100%{fill:var(--ce)}}.c.cm{fill:var(--c1);animation-name:cm}@keyframes cn{88.99%{fill:var(--c3)}89.01%,100%{fill:var(--ce)}}.c.cn{fill:var(--c3);animation-name:cn}@keyframes co{30.23%{fill:var(--c1)}30.25%,100%{fill:var(--ce)}}.c.co{fill:var(--c1);animation-name:co}@keyframes cp{84.18%{fill:var(--c2)}84.2%,100%{fill:var(--ce)}}.c.cp{fill:var(--c2);animation-name:cp}@keyframes cq{6.86%{fill:var(--c1)}6.88%,100%{fill:var(--ce)}}.c.cq{fill:var(--c1);animation-name:cq}@keyframes cr{82.81%{fill:var(--c2)}82.83%,100%{fill:var(--ce)}}.c.cr{fill:var(--c2);animation-name:cr}@keyframes cs{90.02%{fill:var(--c4)}90.04%,100%{fill:var(--ce)}}.c.cs{fill:var(--c4);animation-name:cs}@keyframes ct{29.2%{fill:var(--c1)}29.22%,100%{fill:var(--ce)}}.c.ct{fill:var(--c1);animation-name:ct}@keyframes cu{91.06%{fill:var(--c4)}91.08%,100%{fill:var(--ce)}}.c.cu{fill:var(--c4);animation-name:cu}@keyframes cv{28.17%{fill:var(--c1)}28.19%,100%{fill:var(--ce)}}.c.cv{fill:var(--c1);animation-name:cv}@keyframes cw{81.43%{fill:var(--c2)}81.45%,100%{fill:var(--ce)}}.c.cw{fill:var(--c2);animation-name:cw}@keyframes cx{8.24%{fill:var(--c1)}8.26%,100%{fill:var(--ce)}}.c.cx{fill:var(--c1);animation-name:cx}@keyframes cy{80.75%{fill:var(--c2)}80.77%,100%{fill:var(--ce)}}.c.cy{fill:var(--c2);animation-name:cy}@keyframes cz{26.45%{fill:var(--c1)}26.47%,100%{fill:var(--ce)}}.c.cz{fill:var(--c1);animation-name:cz}@keyframes c10{8.58%{fill:var(--c1)}8.6%,100%{fill:var(--ce)}}.c.c10{fill:var(--c1);animation-name:c10}@keyframes c11{12.36%{fill:var(--c1)}12.38%,100%{fill:var(--ce)}}.c.c11{fill:var(--c1);animation-name:c11}@keyframes c12{12.7%{fill:var(--c1)}12.72%,100%{fill:var(--ce)}}.c.c12{fill:var(--c1);animation-name:c12}@keyframes c13{26.11%{fill:var(--c1)}26.13%,100%{fill:var(--ce)}}.c.c13{fill:var(--c1);animation-name:c13}@keyframes c14{11.33%{fill:var(--c1)}11.35%,100%{fill:var(--ce)}}.c.c14{fill:var(--c1);animation-name:c14}@keyframes c15{8.92%{fill:var(--c1)}8.94%,100%{fill:var(--ce)}}.c.c15{fill:var(--c1);animation-name:c15}@keyframes c16{13.39%{fill:var(--c1)}13.41%,100%{fill:var(--ce)}}.c.c16{fill:var(--c1);animation-name:c16}@keyframes c17{9.27%{fill:var(--c1)}9.29%,100%{fill:var(--ce)}}.c.c17{fill:var(--c1);animation-name:c17}@keyframes c18{79.72%{fill:var(--c2)}79.74%,100%{fill:var(--ce)}}.c.c18{fill:var(--c2);animation-name:c18}@keyframes c19{13.74%{fill:var(--c1)}13.76%,100%{fill:var(--ce)}}.c.c19{fill:var(--c1);animation-name:c19}@keyframes c1a{10.64%{fill:var(--c1)}10.66%,100%{fill:var(--ce)}}.c.c1a{fill:var(--c1);animation-name:c1a}@keyframes c1b{9.61%{fill:var(--c1)}9.63%,100%{fill:var(--ce)}}.c.c1b{fill:var(--c1);animation-name:c1b}@keyframes c1c{14.77%{fill:var(--c1)}14.79%,100%{fill:var(--ce)}}.c.c1c{fill:var(--c1);animation-name:c1c}@keyframes c1d{14.42%{fill:var(--c1)}14.44%,100%{fill:var(--ce)}}.c.c1d{fill:var(--c1);animation-name:c1d}@keyframes c1e{10.3%{fill:var(--c1)}10.32%,100%{fill:var(--ce)}}.c.c1e{fill:var(--c1);animation-name:c1e}@keyframes c1f{9.96%{fill:var(--c1)}9.98%,100%{fill:var(--ce)}}.c.c1f{fill:var(--c1);animation-name:c1f}@keyframes c1g{16.14%{fill:var(--c1)}16.16%,100%{fill:var(--ce)}}.c.c1g{fill:var(--c1);animation-name:c1g}@keyframes c1h{24.04%{fill:var(--c1)}24.06%,100%{fill:var(--ce)}}.c.c1h{fill:var(--c1);animation-name:c1h}@keyframes c1i{16.83%{fill:var(--c1)}16.85%,100%{fill:var(--ce)}}.c.c1i{fill:var(--c1);animation-name:c1i}@keyframes c1j{16.48%{fill:var(--c1)}16.5%,100%{fill:var(--ce)}}.c.c1j{fill:var(--c1);animation-name:c1j}@keyframes c1k{23.36%{fill:var(--c1)}23.38%,100%{fill:var(--ce)}}.c.c1k{fill:var(--c1);animation-name:c1k}@keyframes c1l{23.7%{fill:var(--c1)}23.72%,100%{fill:var(--ce)}}.c.c1l{fill:var(--c1);animation-name:c1l}@keyframes c1m{18.2%{fill:var(--c1)}18.22%,100%{fill:var(--ce)}}.c.c1m{fill:var(--c1);animation-name:c1m}@keyframes c1n{22.33%{fill:var(--c1)}22.35%,100%{fill:var(--ce)}}.c.c1n{fill:var(--c1);animation-name:c1n}@keyframes c1o{18.55%{fill:var(--c1)}18.57%,100%{fill:var(--ce)}}.c.c1o{fill:var(--c1);animation-name:c1o}@keyframes c1p{20.95%{fill:var(--c1)}20.97%,100%{fill:var(--ce)}}.c.c1p{fill:var(--c1);animation-name:c1p}@keyframes c1q{19.58%{fill:var(--c1)}19.6%,100%{fill:var(--ce)}}.c.c1q{fill:var(--c1);animation-name:c1q}@keyframes c1r{48.1%{fill:var(--c1)}48.12%,100%{fill:var(--ce)}}.c.c1r{fill:var(--c1);animation-name:c1r}@keyframes c1s{49.13%{fill:var(--c1)}49.15%,100%{fill:var(--ce)}}.c.c1s{fill:var(--c1);animation-name:c1s}@keyframes c1t{57.38%{fill:var(--c1)}57.4%,100%{fill:var(--ce)}}.c.c1t{fill:var(--c1);animation-name:c1t}@keyframes c1u{50.51%{fill:var(--c1)}50.53%,100%{fill:var(--ce)}}.c.c1u{fill:var(--c1);animation-name:c1u}@keyframes c1v{55.66%{fill:var(--c1)}55.68%,100%{fill:var(--ce)}}.c.c1v{fill:var(--c1);animation-name:c1v}@keyframes c1w{55.32%{fill:var(--c1)}55.34%,100%{fill:var(--ce)}}.c.c1w{fill:var(--c1);animation-name:c1w}@keyframes c1x{50.85%{fill:var(--c1)}50.87%,100%{fill:var(--ce)}}.c.c1x{fill:var(--c1);animation-name:c1x}@keyframes c1y{51.54%{fill:var(--c1)}51.56%,100%{fill:var(--ce)}}.c.c1y{fill:var(--c1);animation-name:c1y}@keyframes c1z{54.63%{fill:var(--c1)}54.65%,100%{fill:var(--ce)}}.c.c1z{fill:var(--c1);animation-name:c1z}@keyframes c20{54.29%{fill:var(--c1)}54.31%,100%{fill:var(--ce)}}.c.c20{fill:var(--c1);animation-name:c20}@keyframes c21{52.22%{fill:var(--c1)}52.24%,100%{fill:var(--ce)}}.c.c21{fill:var(--c1);animation-name:c21}@keyframes c22{53.94%{fill:var(--c1)}53.96%,100%{fill:var(--ce)}}.c.c22{fill:var(--c1);animation-name:c22}@keyframes c23{59.78%{fill:var(--c1)}59.8%,100%{fill:var(--ce)}}.c.c23{fill:var(--c1);animation-name:c23}@keyframes c24{52.57%{fill:var(--c1)}52.59%,100%{fill:var(--ce)}}.c.c24{fill:var(--c1);animation-name:c24}@keyframes c25{53.25%{fill:var(--c1)}53.27%,100%{fill:var(--ce)}}.c.c25{fill:var(--c1);animation-name:c25}@keyframes c26{69.41%{fill:var(--c1)}69.43%,100%{fill:var(--ce)}}.c.c26{fill:var(--c1);animation-name:c26}@keyframes c27{60.81%{fill:var(--c1)}60.83%,100%{fill:var(--ce)}}.c.c27{fill:var(--c1);animation-name:c27}@keyframes c28{61.5%{fill:var(--c1)}61.52%,100%{fill:var(--ce)}}.c.c28{fill:var(--c1);animation-name:c28}@keyframes c29{61.16%{fill:var(--c1)}61.18%,100%{fill:var(--ce)}}.c.c29{fill:var(--c1);animation-name:c29}@keyframes c2a{65.63%{fill:var(--c1)}65.65%,100%{fill:var(--ce)}}.c.c2a{fill:var(--c1);animation-name:c2a}@keyframes c2b{65.97%{fill:var(--c1)}65.99%,100%{fill:var(--ce)}}.c.c2b{fill:var(--c1);animation-name:c2b}@keyframes c2c{61.85%{fill:var(--c1)}61.87%,100%{fill:var(--ce)}}.c.c2c{fill:var(--c1);animation-name:c2c}@keyframes c2d{66.31%{fill:var(--c1)}66.33%,100%{fill:var(--ce)}}.c.c2d{fill:var(--c1);animation-name:c2d}@keyframes c2e{66.66%{fill:var(--c1)}66.68%,100%{fill:var(--ce)}}.c.c2e{fill:var(--c1);animation-name:c2e}@keyframes c2f{67.34%{fill:var(--c1)}67.36%,100%{fill:var(--ce)}}.c.c2f{fill:var(--c1);animation-name:c2f}@keyframes c2g{64.94%{fill:var(--c1)}64.96%,100%{fill:var(--ce)}}.c.c2g{fill:var(--c1);animation-name:c2g}@keyframes c2h{64.59%{fill:var(--c1)}64.61%,100%{fill:var(--ce)}}.c.c2h{fill:var(--c1);animation-name:c2h}@keyframes c2i{62.53%{fill:var(--c1)}62.55%,100%{fill:var(--ce)}}.c.c2i{fill:var(--c1);animation-name:c2i}@keyframes c2j{63.91%{fill:var(--c1)}63.93%,100%{fill:var(--ce)}}.c.c2j{fill:var(--c1);animation-name:c2j}@keyframes c2k{63.22%{fill:var(--c1)}63.24%,100%{fill:var(--ce)}}.c.c2k{fill:var(--c1);animation-name:c2k}.u{transform-origin:0 0;transform:scale(0,1);animation:none linear 29100ms infinite}@keyframes u0{1.71%{transform:scale(0.000,1)}1.73%,2.05%{transform:scale(0.013,1)}2.07%,2.4%{transform:scale(0.025,1)}2.42%,2.74%{transform:scale(0.037,1)}2.76%,3.08%{transform:scale(0.050,1)}3.1%,3.43%{transform:scale(0.063,1)}3.45%,3.77%{transform:scale(0.075,1)}3.79%,4.11%{transform:scale(0.087,1)}4.13%,5.14%{transform:scale(0.100,1)}5.16%,5.49%{transform:scale(0.113,1)}5.51%,5.83%{transform:scale(0.125,1)}5.85%,6.18%{transform:scale(0.138,1)}6.2%,6.52%{transform:scale(0.150,1)}6.54%,6.86%{transform:scale(0.163,1)}6.88%,8.24%{transform:scale(0.175,1)}8.26%,8.58%{transform:scale(0.188,1)}8.6%,8.92%{transform:scale(0.200,1)}8.94%,9.27%{transform:scale(0.212,1)}9.29%,9.61%{transform:scale(0.225,1)}9.63%,9.96%{transform:scale(0.237,1)}9.98%,10.3%{transform:scale(0.250,1)}10.32%,10.64%{transform:scale(0.263,1)}10.66%,11.33%{transform:scale(0.275,1)}11.35%,12.36%{transform:scale(0.287,1)}12.38%,12.7%{transform:scale(0.300,1)}12.72%,13.39%{transform:scale(0.313,1)}13.41%,13.74%{transform:scale(0.325,1)}13.76%,14.42%{transform:scale(0.338,1)}14.44%,14.77%{transform:scale(0.350,1)}14.79%,16.14%{transform:scale(0.362,1)}16.16%,16.48%{transform:scale(0.375,1)}16.5%,16.83%{transform:scale(0.388,1)}16.85%,18.2%{transform:scale(0.400,1)}18.22%,18.55%{transform:scale(0.412,1)}18.57%,19.58%{transform:scale(0.425,1)}19.6%,20.95%{transform:scale(0.438,1)}20.97%,22.33%{transform:scale(0.450,1)}22.35%,23.36%{transform:scale(0.463,1)}23.38%,23.7%{transform:scale(0.475,1)}23.72%,24.04%{transform:scale(0.487,1)}24.06%,26.11%{transform:scale(0.500,1)}26.13%,26.45%{transform:scale(0.512,1)}26.47%,28.17%{transform:scale(0.525,1)}28.19%,29.2%{transform:scale(0.537,1)}29.22%,30.23%{transform:scale(0.550,1)}30.25%,30.57%{transform:scale(0.563,1)}30.59%,30.92%{transform:scale(0.575,1)}30.94%,31.26%{transform:scale(0.588,1)}31.28%,32.29%{transform:scale(0.600,1)}32.31%,35.39%{transform:scale(0.613,1)}35.41%,48.1%{transform:scale(0.625,1)}48.12%,49.13%{transform:scale(0.637,1)}49.15%,50.51%{transform:scale(0.650,1)}50.53%,50.85%{transform:scale(0.662,1)}50.87%,51.54%{transform:scale(0.675,1)}51.56%,52.22%{transform:scale(0.688,1)}52.24%,52.57%{transform:scale(0.700,1)}52.59%,53.25%{transform:scale(0.713,1)}53.27%,53.94%{transform:scale(0.725,1)}53.96%,54.29%{transform:scale(0.738,1)}54.31%,54.63%{transform:scale(0.750,1)}54.65%,55.32%{transform:scale(0.762,1)}55.34%,55.66%{transform:scale(0.775,1)}55.68%,57.38%{transform:scale(0.787,1)}57.4%,59.78%{transform:scale(0.800,1)}59.8%,60.81%{transform:scale(0.813,1)}60.83%,61.16%{transform:scale(0.825,1)}61.18%,61.5%{transform:scale(0.838,1)}61.52%,61.85%{transform:scale(0.850,1)}61.87%,62.53%{transform:scale(0.863,1)}62.55%,63.22%{transform:scale(0.875,1)}63.24%,63.91%{transform:scale(0.887,1)}63.93%,64.59%{transform:scale(0.900,1)}64.61%,64.94%{transform:scale(0.912,1)}64.96%,65.63%{transform:scale(0.925,1)}65.65%,65.97%{transform:scale(0.938,1)}65.99%,66.31%{transform:scale(0.950,1)}66.33%,66.66%{transform:scale(0.963,1)}66.68%,67.34%{transform:scale(0.975,1)}67.36%,69.41%{transform:scale(0.988,1)}69.43%,100%{transform:scale(1.000,1)}}.u.u0{fill:var(--c1);animation-name:u0;transform-origin:0.0px 0}@keyframes u1{79.72%{transform:scale(0.000,1)}79.74%,80.75%{transform:scale(0.125,1)}80.77%,81.43%{transform:scale(0.250,1)}81.45%,82.81%{transform:scale(0.375,1)}82.83%,84.18%{transform:scale(0.500,1)}84.2%,84.87%{transform:scale(0.625,1)}84.89%,85.9%{transform:scale(0.750,1)}85.92%,86.24%{transform:scale(0.875,1)}86.26%,100%{transform:scale(1.000,1)}}.u.u1{fill:var(--c2);animation-name:u1;transform-origin:729.5px 0}@keyframes u2{88.99%{transform:scale(0.000,1)}89.01%,100%{transform:scale(1.000,1)}}.u.u2{fill:var(--c3);animation-name:u2;transform-origin:802.4px 0}@keyframes u3{90.02%{transform:scale(0.000,1)}90.04%,91.06%{transform:scale(0.250,1)}91.08%,93.46%{transform:scale(0.500,1)}93.48%,95.52%{transform:scale(0.750,1)}95.54%,100%{transform:scale(1.000,1)}}.u.u3{fill:var(--c4);animation-name:u3;transform-origin:811.5px 0}.s{shape-rendering:geometricPrecision;fill:var(--cs);animation:none linear 29100ms infinite}@keyframes s0{0%,99.66%{transform:translate(0px,-16px)}0.34%{transform:translate(0px,0px)}1.37%{transform:translate(48px,0px)}1.72%{transform:translate(48px,16px)}2.06%,97.59%{transform:translate(64px,16px)}2.41%{transform:translate(64px,32px)}3.09%{transform:translate(32px,32px)}3.44%{transform:translate(32px,48px)}5.5%,38.49%{transform:translate(128px,48px)}5.84%,38.83%{transform:translate(128px,32px)}6.19%,39.18%{transform:translate(144px,32px)}6.53%,39.52%{transform:translate(144px,16px)}7.56%,40.55%{transform:translate(192px,16px)}7.9%,90.38%{transform:translate(192px,32px)}9.97%{transform:translate(288px,32px)}10.31%{transform:translate(288px,16px)}11.34%{transform:translate(240px,16px)}12.03%{transform:translate(240px,48px)}12.37%{transform:translate(224px,48px)}12.71%,27.15%{transform:translate(224px,64px)}13.06%{transform:translate(240px,64px)}13.4%{transform:translate(240px,80px)}14.09%{transform:translate(272px,80px)}14.78%{transform:translate(272px,48px)}15.81%{transform:translate(320px,48px)}16.15%{transform:translate(320px,32px)}16.49%{transform:translate(336px,32px)}16.84%{transform:translate(336px,16px)}17.87%{transform:translate(384px,16px)}18.21%{transform:translate(384px,32px)}19.59%{transform:translate(448px,32px)}19.93%{transform:translate(448px,48px)}20.27%{transform:translate(432px,48px)}20.96%{transform:translate(432px,80px)}21.31%{transform:translate(416px,80px)}21.65%{transform:translate(416px,64px)}23.37%{transform:translate(336px,64px)}23.71%{transform:translate(336px,80px)}26.46%{transform:translate(208px,80px)}26.8%{transform:translate(208px,64px)}27.49%{transform:translate(224px,80px)}28.52%{transform:translate(176px,80px)}29.21%,89.69%{transform:translate(176px,48px)}29.55%{transform:translate(160px,48px)}29.9%,83.51%{transform:translate(160px,64px)}31.27%{transform:translate(96px,64px)}31.62%{transform:translate(96px,48px)}31.96%{transform:translate(112px,48px)}32.3%{transform:translate(112px,32px)}34.71%{transform:translate(0px,32px)}35.4%{transform:translate(0px,64px)}36.77%,86.94%{transform:translate(64px,64px)}37.11%{transform:translate(64px,48px)}40.89%{transform:translate(192px,0px)}47.77%{transform:translate(512px,0px)}48.11%{transform:translate(512px,16px)}50.17%{transform:translate(608px,16px)}50.52%{transform:translate(608px,32px)}51.2%{transform:translate(640px,32px)}51.55%{transform:translate(640px,16px)}52.58%{transform:translate(688px,16px)}53.26%{transform:translate(688px,48px)}53.61%{transform:translate(672px,48px)}53.95%{transform:translate(672px,64px)}55.33%{transform:translate(608px,64px)}55.67%{transform:translate(608px,48px)}56.7%{transform:translate(560px,48px)}57.39%{transform:translate(560px,80px)}61.17%{transform:translate(736px,80px)}61.51%{transform:translate(736px,64px)}63.23%{transform:translate(816px,64px)}63.92%{transform:translate(816px,32px)}64.6%{transform:translate(784px,32px)}64.95%{transform:translate(784px,16px)}65.64%{transform:translate(752px,16px)}65.98%,68.73%{transform:translate(752px,32px)}66.32%{transform:translate(768px,32px)}67.35%{transform:translate(768px,80px)}67.7%{transform:translate(752px,80px)}79.38%{transform:translate(256px,32px)}79.73%{transform:translate(256px,48px)}80.76%{transform:translate(208px,48px)}81.44%{transform:translate(208px,16px)}82.47%{transform:translate(160px,16px)}83.85%,88.66%{transform:translate(144px,64px)}84.19%{transform:translate(144px,80px)}84.88%{transform:translate(112px,80px)}85.22%{transform:translate(112px,64px)}85.91%{transform:translate(80px,64px)}86.25%,95.88%{transform:translate(80px,80px)}86.6%{transform:translate(64px,80px)}89%{transform:translate(144px,48px)}90.03%{transform:translate(176px,32px)}91.07%{transform:translate(192px,64px)}91.41%{transform:translate(176px,64px)}92.44%{transform:translate(176px,16px)}94.16%{transform:translate(96px,16px)}95.53%{transform:translate(96px,80px)}97.25%{transform:translate(80px,16px)}98.28%{transform:translate(64px,-16px)}}.s.s0{transform:translate(0px,-16px);animation-name:s0}@keyframes s1{0%,99.66%{transform:translate(16px,-16px)}0.34%{transform:translate(0px,-16px)}0.69%{transform:translate(0px,0px)}1.72%{transform:translate(48px,0px)}2.06%{transform:translate(48px,16px)}2.41%,97.94%{transform:translate(64px,16px)}2.75%{transform:translate(64px,32px)}3.44%{transform:translate(32px,32px)}3.78%{transform:translate(32px,48px)}5.84%,38.83%{transform:translate(128px,48px)}6.19%,39.18%{transform:translate(128px,32px)}6.53%,39.52%{transform:translate(144px,32px)}6.87%,39.86%{transform:translate(144px,16px)}7.9%,40.89%{transform:translate(192px,16px)}8.25%,90.72%{transform:translate(192px,32px)}10.31%{transform:translate(288px,32px)}10.65%{transform:translate(288px,16px)}11.68%{transform:translate(240px,16px)}12.37%{transform:translate(240px,48px)}12.71%{transform:translate(224px,48px)}13.06%,27.49%{transform:translate(224px,64px)}13.4%{transform:translate(240px,64px)}13.75%{transform:translate(240px,80px)}14.43%{transform:translate(272px,80px)}15.12%{transform:translate(272px,48px)}16.15%{transform:translate(320px,48px)}16.49%{transform:translate(320px,32px)}16.84%{transform:translate(336px,32px)}17.18%{transform:translate(336px,16px)}18.21%{transform:translate(384px,16px)}18.56%{transform:translate(384px,32px)}19.93%{transform:translate(448px,32px)}20.27%{transform:translate(448px,48px)}20.62%{transform:translate(432px,48px)}21.31%{transform:translate(432px,80px)}21.65%{transform:translate(416px,80px)}21.99%{transform:translate(416px,64px)}23.71%{transform:translate(336px,64px)}24.05%{transform:translate(336px,80px)}26.8%{transform:translate(208px,80px)}27.15%{transform:translate(208px,64px)}27.84%{transform:translate(224px,80px)}28.87%{transform:translate(176px,80px)}29.55%,90.03%{transform:translate(176px,48px)}29.9%{transform:translate(160px,48px)}30.24%,83.85%{transform:translate(160px,64px)}31.62%{transform:translate(96px,64px)}31.96%{transform:translate(96px,48px)}32.3%{transform:translate(112px,48px)}32.65%{transform:translate(112px,32px)}35.05%{transform:translate(0px,32px)}35.74%{transform:translate(0px,64px)}37.11%,87.29%{transform:translate(64px,64px)}37.46%{transform:translate(64px,48px)}41.24%{transform:translate(192px,0px)}48.11%{transform:translate(512px,0px)}48.45%{transform:translate(512px,16px)}50.52%{transform:translate(608px,16px)}50.86%{transform:translate(608px,32px)}51.55%{transform:translate(640px,32px)}51.89%{transform:translate(640px,16px)}52.92%{transform:translate(688px,16px)}53.61%{transform:translate(688px,48px)}53.95%{transform:translate(672px,48px)}54.3%{transform:translate(672px,64px)}55.67%{transform:translate(608px,64px)}56.01%{transform:translate(608px,48px)}57.04%{transform:translate(560px,48px)}57.73%{transform:translate(560px,80px)}61.51%{transform:translate(736px,80px)}61.86%{transform:translate(736px,64px)}63.57%{transform:translate(816px,64px)}64.26%{transform:translate(816px,32px)}64.95%{transform:translate(784px,32px)}65.29%{transform:translate(784px,16px)}65.98%{transform:translate(752px,16px)}66.32%,69.07%{transform:translate(752px,32px)}66.67%{transform:translate(768px,32px)}67.7%{transform:translate(768px,80px)}68.04%{transform:translate(752px,80px)}79.73%{transform:translate(256px,32px)}80.07%{transform:translate(256px,48px)}81.1%{transform:translate(208px,48px)}81.79%{transform:translate(208px,16px)}82.82%{transform:translate(160px,16px)}84.19%,89%{transform:translate(144px,64px)}84.54%{transform:translate(144px,80px)}85.22%{transform:translate(112px,80px)}85.57%{transform:translate(112px,64px)}86.25%{transform:translate(80px,64px)}86.6%,96.22%{transform:translate(80px,80px)}86.94%{transform:translate(64px,80px)}89.35%{transform:translate(144px,48px)}90.38%{transform:translate(176px,32px)}91.41%{transform:translate(192px,64px)}91.75%{transform:translate(176px,64px)}92.78%{transform:translate(176px,16px)}94.5%{transform:translate(96px,16px)}95.88%{transform:translate(96px,80px)}97.59%{transform:translate(80px,16px)}98.63%{transform:translate(64px,-16px)}}.s.s1{transform:translate(16px,-16px);animation-name:s1}@keyframes s2{0%,99.66%{transform:translate(32px,-16px)}0.69%{transform:translate(0px,-16px)}1.03%{transform:translate(0px,0px)}2.06%{transform:translate(48px,0px)}2.41%{transform:translate(48px,16px)}2.75%,98.28%{transform:translate(64px,16px)}3.09%{transform:translate(64px,32px)}3.78%{transform:translate(32px,32px)}4.12%{transform:translate(32px,48px)}6.19%,39.18%{transform:translate(128px,48px)}6.53%,39.52%{transform:translate(128px,32px)}6.87%,39.86%{transform:translate(144px,32px)}7.22%,40.21%{transform:translate(144px,16px)}8.25%,41.24%{transform:translate(192px,16px)}8.59%,91.07%{transform:translate(192px,32px)}10.65%{transform:translate(288px,32px)}11%{transform:translate(288px,16px)}12.03%{transform:translate(240px,16px)}12.71%{transform:translate(240px,48px)}13.06%{transform:translate(224px,48px)}13.4%,27.84%{transform:translate(224px,64px)}13.75%{transform:translate(240px,64px)}14.09%{transform:translate(240px,80px)}14.78%{transform:translate(272px,80px)}15.46%{transform:translate(272px,48px)}16.49%{transform:translate(320px,48px)}16.84%{transform:translate(320px,32px)}17.18%{transform:translate(336px,32px)}17.53%{transform:translate(336px,16px)}18.56%{transform:translate(384px,16px)}18.9%{transform:translate(384px,32px)}20.27%{transform:translate(448px,32px)}20.62%{transform:translate(448px,48px)}20.96%{transform:translate(432px,48px)}21.65%{transform:translate(432px,80px)}21.99%{transform:translate(416px,80px)}22.34%{transform:translate(416px,64px)}24.05%{transform:translate(336px,64px)}24.4%{transform:translate(336px,80px)}27.15%{transform:translate(208px,80px)}27.49%{transform:translate(208px,64px)}28.18%{transform:translate(224px,80px)}29.21%{transform:translate(176px,80px)}29.9%,90.38%{transform:translate(176px,48px)}30.24%{transform:translate(160px,48px)}30.58%,84.19%{transform:translate(160px,64px)}31.96%{transform:translate(96px,64px)}32.3%{transform:translate(96px,48px)}32.65%{transform:translate(112px,48px)}32.99%{transform:translate(112px,32px)}35.4%{transform:translate(0px,32px)}36.08%{transform:translate(0px,64px)}37.46%,87.63%{transform:translate(64px,64px)}37.8%{transform:translate(64px,48px)}41.58%{transform:translate(192px,0px)}48.45%{transform:translate(512px,0px)}48.8%{transform:translate(512px,16px)}50.86%{transform:translate(608px,16px)}51.2%{transform:translate(608px,32px)}51.89%{transform:translate(640px,32px)}52.23%{transform:translate(640px,16px)}53.26%{transform:translate(688px,16px)}53.95%{transform:translate(688px,48px)}54.3%{transform:translate(672px,48px)}54.64%{transform:translate(672px,64px)}56.01%{transform:translate(608px,64px)}56.36%{transform:translate(608px,48px)}57.39%{transform:translate(560px,48px)}58.08%{transform:translate(560px,80px)}61.86%{transform:translate(736px,80px)}62.2%{transform:translate(736px,64px)}63.92%{transform:translate(816px,64px)}64.6%{transform:translate(816px,32px)}65.29%{transform:translate(784px,32px)}65.64%{transform:translate(784px,16px)}66.32%{transform:translate(752px,16px)}66.67%,69.42%{transform:translate(752px,32px)}67.01%{transform:translate(768px,32px)}68.04%{transform:translate(768px,80px)}68.38%{transform:translate(752px,80px)}80.07%{transform:translate(256px,32px)}80.41%{transform:translate(256px,48px)}81.44%{transform:translate(208px,48px)}82.13%{transform:translate(208px,16px)}83.16%{transform:translate(160px,16px)}84.54%,89.35%{transform:translate(144px,64px)}84.88%{transform:translate(144px,80px)}85.57%{transform:translate(112px,80px)}85.91%{transform:translate(112px,64px)}86.6%{transform:translate(80px,64px)}86.94%,96.56%{transform:translate(80px,80px)}87.29%{transform:translate(64px,80px)}89.69%{transform:translate(144px,48px)}90.72%{transform:translate(176px,32px)}91.75%{transform:translate(192px,64px)}92.1%{transform:translate(176px,64px)}93.13%{transform:translate(176px,16px)}94.85%{transform:translate(96px,16px)}96.22%{transform:translate(96px,80px)}97.94%{transform:translate(80px,16px)}98.97%{transform:translate(64px,-16px)}}.s.s2{transform:translate(32px,-16px);animation-name:s2}@keyframes s3{0%,99.66%{transform:translate(48px,-16px)}1.03%{transform:translate(0px,-16px)}1.37%{transform:translate(0px,0px)}2.41%{transform:translate(48px,0px)}2.75%{transform:translate(48px,16px)}3.09%,98.63%{transform:translate(64px,16px)}3.44%{transform:translate(64px,32px)}4.12%{transform:translate(32px,32px)}4.47%{transform:translate(32px,48px)}6.53%,39.52%{transform:translate(128px,48px)}6.87%,39.86%{transform:translate(128px,32px)}7.22%,40.21%{transform:translate(144px,32px)}7.56%,40.55%{transform:translate(144px,16px)}8.59%,41.58%{transform:translate(192px,16px)}8.93%,91.41%{transform:translate(192px,32px)}11%{transform:translate(288px,32px)}11.34%{transform:translate(288px,16px)}12.37%{transform:translate(240px,16px)}13.06%{transform:translate(240px,48px)}13.4%{transform:translate(224px,48px)}13.75%,28.18%{transform:translate(224px,64px)}14.09%{transform:translate(240px,64px)}14.43%{transform:translate(240px,80px)}15.12%{transform:translate(272px,80px)}15.81%{transform:translate(272px,48px)}16.84%{transform:translate(320px,48px)}17.18%{transform:translate(320px,32px)}17.53%{transform:translate(336px,32px)}17.87%{transform:translate(336px,16px)}18.9%{transform:translate(384px,16px)}19.24%{transform:translate(384px,32px)}20.62%{transform:translate(448px,32px)}20.96%{transform:translate(448px,48px)}21.31%{transform:translate(432px,48px)}21.99%{transform:translate(432px,80px)}22.34%{transform:translate(416px,80px)}22.68%{transform:translate(416px,64px)}24.4%{transform:translate(336px,64px)}24.74%{transform:translate(336px,80px)}27.49%{transform:translate(208px,80px)}27.84%{transform:translate(208px,64px)}28.52%{transform:translate(224px,80px)}29.55%{transform:translate(176px,80px)}30.24%,90.72%{transform:translate(176px,48px)}30.58%{transform:translate(160px,48px)}30.93%,84.54%{transform:translate(160px,64px)}32.3%{transform:translate(96px,64px)}32.65%{transform:translate(96px,48px)}32.99%{transform:translate(112px,48px)}33.33%{transform:translate(112px,32px)}35.74%{transform:translate(0px,32px)}36.43%{transform:translate(0px,64px)}37.8%,87.97%{transform:translate(64px,64px)}38.14%{transform:translate(64px,48px)}41.92%{transform:translate(192px,0px)}48.8%{transform:translate(512px,0px)}49.14%{transform:translate(512px,16px)}51.2%{transform:translate(608px,16px)}51.55%{transform:translate(608px,32px)}52.23%{transform:translate(640px,32px)}52.58%{transform:translate(640px,16px)}53.61%{transform:translate(688px,16px)}54.3%{transform:translate(688px,48px)}54.64%{transform:translate(672px,48px)}54.98%{transform:translate(672px,64px)}56.36%{transform:translate(608px,64px)}56.7%{transform:translate(608px,48px)}57.73%{transform:translate(560px,48px)}58.42%{transform:translate(560px,80px)}62.2%{transform:translate(736px,80px)}62.54%{transform:translate(736px,64px)}64.26%{transform:translate(816px,64px)}64.95%{transform:translate(816px,32px)}65.64%{transform:translate(784px,32px)}65.98%{transform:translate(784px,16px)}66.67%{transform:translate(752px,16px)}67.01%,69.76%{transform:translate(752px,32px)}67.35%{transform:translate(768px,32px)}68.38%{transform:translate(768px,80px)}68.73%{transform:translate(752px,80px)}80.41%{transform:translate(256px,32px)}80.76%{transform:translate(256px,48px)}81.79%{transform:translate(208px,48px)}82.47%{transform:translate(208px,16px)}83.51%{transform:translate(160px,16px)}84.88%,89.69%{transform:translate(144px,64px)}85.22%{transform:translate(144px,80px)}85.91%{transform:translate(112px,80px)}86.25%{transform:translate(112px,64px)}86.94%{transform:translate(80px,64px)}87.29%,96.91%{transform:translate(80px,80px)}87.63%{transform:translate(64px,80px)}90.03%{transform:translate(144px,48px)}91.07%{transform:translate(176px,32px)}92.1%{transform:translate(192px,64px)}92.44%{transform:translate(176px,64px)}93.47%{transform:translate(176px,16px)}95.19%{transform:translate(96px,16px)}96.56%{transform:translate(96px,80px)}98.28%{transform:translate(80px,16px)}99.31%{transform:translate(64px,-16px)}}.s.s3{transform:translate(48px,-16px);animation-name:s3}</style><rect class="c" x="2" y="2" rx="2" ry="2"/><rect class="c" x="2" y="18" rx="2" ry="2"/><rect class="c" x="2" y="34" rx="2" ry="2"/><rect class="c" x="2" y="50" rx="2" ry="2"/><rect class="c c0" x="2" y="66" rx="2" ry="2"/><rect class="c" x="2" y="82" rx="2" ry="2"/><rect class="c" x="2" y="98" rx="2" ry="2"/><rect class="c" x="18" y="2" rx="2" ry="2"/><rect class="c" x="18" y="18" rx="2" ry="2"/><rect class="c" x="18" y="34" rx="2" ry="2"/><rect class="c" x="18" y="50" rx="2" ry="2"/><rect class="c" x="18" y="66" rx="2" ry="2"/><rect class="c" x="18" y="82" rx="2" ry="2"/><rect class="c" x="18" y="98" rx="2" ry="2"/><rect class="c" x="34" y="2" rx="2" ry="2"/><rect class="c" x="34" y="18" rx="2" ry="2"/><rect class="c c1" x="34" y="34" rx="2" ry="2"/><rect class="c c2" x="34" y="50" rx="2" ry="2"/><rect class="c" x="34" y="66" rx="2" ry="2"/><rect class="c" x="34" y="82" rx="2" ry="2"/><rect class="c" x="34" y="98" rx="2" ry="2"/><rect class="c" x="50" y="2" rx="2" ry="2"/><rect class="c c3" x="50" y="18" rx="2" ry="2"/><rect class="c c4" x="50" y="34" rx="2" ry="2"/><rect class="c c5" x="50" y="50" rx="2" ry="2"/><rect class="c" x="50" y="66" rx="2" ry="2"/><rect class="c" x="50" y="82" rx="2" ry="2"/><rect class="c" x="50" y="98" rx="2" ry="2"/><rect class="c" x="66" y="2" rx="2" ry="2"/><rect class="c c6" x="66" y="18" rx="2" ry="2"/><rect class="c c7" x="66" y="34" rx="2" ry="2"/><rect class="c c8" x="66" y="50" rx="2" ry="2"/><rect class="c" x="66" y="66" rx="2" ry="2"/><rect class="c" x="66" y="82" rx="2" ry="2"/><rect class="c" x="66" y="98" rx="2" ry="2"/><rect class="c" x="82" y="2" rx="2" ry="2"/><rect class="c" x="82" y="18" rx="2" ry="2"/><rect class="c" x="82" y="34" rx="2" ry="2"/><rect class="c" x="82" y="50" rx="2" ry="2"/><rect class="c c9" x="82" y="66" rx="2" ry="2"/><rect class="c ca" x="82" y="82" rx="2" ry="2"/><rect class="c" x="82" y="98" rx="2" ry="2"/><rect class="c" x="98" y="2" rx="2" ry="2"/><rect class="c" x="98" y="18" rx="2" ry="2"/><rect class="c" x="98" y="34" rx="2" ry="2"/><rect class="c" x="98" y="50" rx="2" ry="2"/><rect class="c cb" x="98" y="66" rx="2" ry="2"/><rect class="c cc" x="98" y="82" rx="2" ry="2"/><rect class="c" x="98" y="98" rx="2" ry="2"/><rect class="c" x="114" y="2" rx="2" ry="2"/><rect class="c" x="114" y="18" rx="2" ry="2"/><rect class="c cd" x="114" y="34" rx="2" ry="2"/><rect class="c ce" x="114" y="50" rx="2" ry="2"/><rect class="c cf" x="114" y="66" rx="2" ry="2"/><rect class="c cg" x="114" y="82" rx="2" ry="2"/><rect class="c" x="114" y="98" rx="2" ry="2"/><rect class="c" x="130" y="2" rx="2" ry="2"/><rect class="c ch" x="130" y="18" rx="2" ry="2"/><rect class="c ci" x="130" y="34" rx="2" ry="2"/><rect class="c cj" x="130" y="50" rx="2" ry="2"/><rect class="c ck" x="130" y="66" rx="2" ry="2"/><rect class="c" x="130" y="82" rx="2" ry="2"/><rect class="c" x="130" y="98" rx="2" ry="2"/><rect class="c" x="146" y="2" rx="2" ry="2"/><rect class="c cl" x="146" y="18" rx="2" ry="2"/><rect class="c cm" x="146" y="34" rx="2" ry="2"/><rect class="c cn" x="146" y="50" rx="2" ry="2"/><rect class="c co" x="146" y="66" rx="2" ry="2"/><rect class="c cp" x="146" y="82" rx="2" ry="2"/><rect class="c" x="146" y="98" rx="2" ry="2"/><rect class="c" x="162" y="2" rx="2" ry="2"/><rect class="c cq" x="162" y="18" rx="2" ry="2"/><rect class="c cr" x="162" y="34" rx="2" ry="2"/><rect class="c" x="162" y="50" rx="2" ry="2"/><rect class="c" x="162" y="66" rx="2" ry="2"/><rect class="c" x="162" y="82" rx="2" ry="2"/><rect class="c" x="162" y="98" rx="2" ry="2"/><rect class="c" x="178" y="2" rx="2" ry="2"/><rect class="c" x="178" y="18" rx="2" ry="2"/><rect class="c cs" x="178" y="34" rx="2" ry="2"/><rect class="c ct" x="178" y="50" rx="2" ry="2"/><rect class="c" x="178" y="66" rx="2" ry="2"/><rect class="c" x="178" y="82" rx="2" ry="2"/><rect class="c" x="178" y="98" rx="2" ry="2"/><rect class="c" x="194" y="2" rx="2" ry="2"/><rect class="c" x="194" y="18" rx="2" ry="2"/><rect class="c" x="194" y="34" rx="2" ry="2"/><rect class="c" x="194" y="50" rx="2" ry="2"/><rect class="c cu" x="194" y="66" rx="2" ry="2"/><rect class="c cv" x="194" y="82" rx="2" ry="2"/><rect class="c" x="194" y="98" rx="2" ry="2"/><rect class="c" x="210" y="2" rx="2" ry="2"/><rect class="c cw" x="210" y="18" rx="2" ry="2"/><rect class="c cx" x="210" y="34" rx="2" ry="2"/><rect class="c cy" x="210" y="50" rx="2" ry="2"/><rect class="c" x="210" y="66" rx="2" ry="2"/><rect class="c cz" x="210" y="82" rx="2" ry="2"/><rect class="c" x="210" y="98" rx="2" ry="2"/><rect class="c" x="226" y="2" rx="2" ry="2"/><rect class="c" x="226" y="18" rx="2" ry="2"/><rect class="c c10" x="226" y="34" rx="2" ry="2"/><rect class="c c11" x="226" y="50" rx="2" ry="2"/><rect class="c c12" x="226" y="66" rx="2" ry="2"/><rect class="c c13" x="226" y="82" rx="2" ry="2"/><rect class="c" x="226" y="98" rx="2" ry="2"/><rect class="c" x="242" y="2" rx="2" ry="2"/><rect class="c c14" x="242" y="18" rx="2" ry="2"/><rect class="c c15" x="242" y="34" rx="2" ry="2"/><rect class="c" x="242" y="50" rx="2" ry="2"/><rect class="c" x="242" y="66" rx="2" ry="2"/><rect class="c c16" x="242" y="82" rx="2" ry="2"/><rect class="c" x="242" y="98" rx="2" ry="2"/><rect class="c" x="258" y="2" rx="2" ry="2"/><rect class="c" x="258" y="18" rx="2" ry="2"/><rect class="c c17" x="258" y="34" rx="2" ry="2"/><rect class="c c18" x="258" y="50" rx="2" ry="2"/><rect class="c" x="258" y="66" rx="2" ry="2"/><rect class="c c19" x="258" y="82" rx="2" ry="2"/><rect class="c" x="258" y="98" rx="2" ry="2"/><rect class="c" x="274" y="2" rx="2" ry="2"/><rect class="c c1a" x="274" y="18" rx="2" ry="2"/><rect class="c c1b" x="274" y="34" rx="2" ry="2"/><rect class="c c1c" x="274" y="50" rx="2" ry="2"/><rect class="c c1d" x="274" y="66" rx="2" ry="2"/><rect class="c" x="274" y="82" rx="2" ry="2"/><rect class="c" x="274" y="98" rx="2" ry="2"/><rect class="c" x="290" y="2" rx="2" ry="2"/><rect class="c c1e" x="290" y="18" rx="2" ry="2"/><rect class="c c1f" x="290" y="34" rx="2" ry="2"/><rect class="c" x="290" y="50" rx="2" ry="2"/><rect class="c" x="290" y="66" rx="2" ry="2"/><rect class="c" x="290" y="82" rx="2" ry="2"/><rect class="c" x="290" y="98" rx="2" ry="2"/><rect class="c" x="306" y="2" rx="2" ry="2"/><rect class="c" x="306" y="18" rx="2" ry="2"/><rect class="c" x="306" y="34" rx="2" ry="2"/><rect class="c" x="306" y="50" rx="2" ry="2"/><rect class="c" x="306" y="66" rx="2" ry="2"/><rect class="c" x="306" y="82" rx="2" ry="2"/><rect class="c" x="306" y="98" rx="2" ry="2"/><rect class="c" x="322" y="2" rx="2" ry="2"/><rect class="c" x="322" y="18" rx="2" ry="2"/><rect class="c c1g" x="322" y="34" rx="2" ry="2"/><rect class="c" x="322" y="50" rx="2" ry="2"/><rect class="c" x="322" y="66" rx="2" ry="2"/><rect class="c c1h" x="322" y="82" rx="2" ry="2"/><rect class="c" x="322" y="98" rx="2" ry="2"/><rect class="c" x="338" y="2" rx="2" ry="2"/><rect class="c c1i" x="338" y="18" rx="2" ry="2"/><rect class="c c1j" x="338" y="34" rx="2" ry="2"/><rect class="c" x="338" y="50" rx="2" ry="2"/><rect class="c c1k" x="338" y="66" rx="2" ry="2"/><rect class="c c1l" x="338" y="82" rx="2" ry="2"/><rect class="c" x="338" y="98" rx="2" ry="2"/><rect class="c" x="354" y="2" rx="2" ry="2"/><rect class="c" x="354" y="18" rx="2" ry="2"/><rect class="c" x="354" y="34" rx="2" ry="2"/><rect class="c" x="354" y="50" rx="2" ry="2"/><rect class="c" x="354" y="66" rx="2" ry="2"/><rect class="c" x="354" y="82" rx="2" ry="2"/><rect class="c" x="354" y="98" rx="2" ry="2"/><rect class="c" x="370" y="2" rx="2" ry="2"/><rect class="c" x="370" y="18" rx="2" ry="2"/><rect class="c" x="370" y="34" rx="2" ry="2"/><rect class="c" x="370" y="50" rx="2" ry="2"/><rect class="c" x="370" y="66" rx="2" ry="2"/><rect class="c" x="370" y="82" rx="2" ry="2"/><rect class="c" x="370" y="98" rx="2" ry="2"/><rect class="c" x="386" y="2" rx="2" ry="2"/><rect class="c" x="386" y="18" rx="2" ry="2"/><rect class="c c1m" x="386" y="34" rx="2" ry="2"/><rect class="c" x="386" y="50" rx="2" ry="2"/><rect class="c c1n" x="386" y="66" rx="2" ry="2"/><rect class="c" x="386" y="82" rx="2" ry="2"/><rect class="c" x="386" y="98" rx="2" ry="2"/><rect class="c" x="402" y="2" rx="2" ry="2"/><rect class="c" x="402" y="18" rx="2" ry="2"/><rect class="c c1o" x="402" y="34" rx="2" ry="2"/><rect class="c" x="402" y="50" rx="2" ry="2"/><rect class="c" x="402" y="66" rx="2" ry="2"/><rect class="c" x="402" y="82" rx="2" ry="2"/><rect class="c" x="402" y="98" rx="2" ry="2"/><rect class="c" x="418" y="2" rx="2" ry="2"/><rect class="c" x="418" y="18" rx="2" ry="2"/><rect class="c" x="418" y="34" rx="2" ry="2"/><rect class="c" x="418" y="50" rx="2" ry="2"/><rect class="c" x="418" y="66" rx="2" ry="2"/><rect class="c" x="418" y="82" rx="2" ry="2"/><rect class="c" x="418" y="98" rx="2" ry="2"/><rect class="c" x="434" y="2" rx="2" ry="2"/><rect class="c" x="434" y="18" rx="2" ry="2"/><rect class="c" x="434" y="34" rx="2" ry="2"/><rect class="c" x="434" y="50" rx="2" ry="2"/><rect class="c" x="434" y="66" rx="2" ry="2"/><rect class="c c1p" x="434" y="82" rx="2" ry="2"/><rect class="c" x="434" y="98" rx="2" ry="2"/><rect class="c" x="450" y="2" rx="2" ry="2"/><rect class="c" x="450" y="18" rx="2" ry="2"/><rect class="c c1q" x="450" y="34" rx="2" ry="2"/><rect class="c" x="450" y="50" rx="2" ry="2"/><rect class="c" x="450" y="66" rx="2" ry="2"/><rect class="c" x="450" y="82" rx="2" ry="2"/><rect class="c" x="450" y="98" rx="2" ry="2"/><rect class="c" x="466" y="2" rx="2" ry="2"/><rect class="c" x="466" y="18" rx="2" ry="2"/><rect class="c" x="466" y="34" rx="2" ry="2"/><rect class="c" x="466" y="50" rx="2" ry="2"/><rect class="c" x="466" y="66" rx="2" ry="2"/><rect class="c" x="466" y="82" rx="2" ry="2"/><rect class="c" x="466" y="98" rx="2" ry="2"/><rect class="c" x="482" y="2" rx="2" ry="2"/><rect class="c" x="482" y="18" rx="2" ry="2"/><rect class="c" x="482" y="34" rx="2" ry="2"/><rect class="c" x="482" y="50" rx="2" ry="2"/><rect class="c" x="482" y="66" rx="2" ry="2"/><rect class="c" x="482" y="82" rx="2" ry="2"/><rect class="c" x="482" y="98" rx="2" ry="2"/><rect class="c" x="498" y="2" rx="2" ry="2"/><rect class="c" x="498" y="18" rx="2" ry="2"/><rect class="c" x="498" y="34" rx="2" ry="2"/><rect class="c" x="498" y="50" rx="2" ry="2"/><rect class="c" x="498" y="66" rx="2" ry="2"/><rect class="c" x="498" y="82" rx="2" ry="2"/><rect class="c" x="498" y="98" rx="2" ry="2"/><rect class="c" x="514" y="2" rx="2" ry="2"/><rect class="c c1r" x="514" y="18" rx="2" ry="2"/><rect class="c" x="514" y="34" rx="2" ry="2"/><rect class="c" x="514" y="50" rx="2" ry="2"/><rect class="c" x="514" y="66" rx="2" ry="2"/><rect class="c" x="514" y="82" rx="2" ry="2"/><rect class="c" x="514" y="98" rx="2" ry="2"/><rect class="c" x="530" y="2" rx="2" ry="2"/><rect class="c" x="530" y="18" rx="2" ry="2"/><rect class="c" x="530" y="34" rx="2" ry="2"/><rect class="c" x="530" y="50" rx="2" ry="2"/><rect class="c" x="530" y="66" rx="2" ry="2"/><rect class="c" x="530" y="82" rx="2" ry="2"/><rect class="c" x="530" y="98" rx="2" ry="2"/><rect class="c" x="546" y="2" rx="2" ry="2"/><rect class="c" x="546" y="18" rx="2" ry="2"/><rect class="c" x="546" y="34" rx="2" ry="2"/><rect class="c" x="546" y="50" rx="2" ry="2"/><rect class="c" x="546" y="66" rx="2" ry="2"/><rect class="c" x="546" y="82" rx="2" ry="2"/><rect class="c" x="546" y="98" rx="2" ry="2"/><rect class="c" x="562" y="2" rx="2" ry="2"/><rect class="c c1s" x="562" y="18" rx="2" ry="2"/><rect class="c" x="562" y="34" rx="2" ry="2"/><rect class="c" x="562" y="50" rx="2" ry="2"/><rect class="c" x="562" y="66" rx="2" ry="2"/><rect class="c c1t" x="562" y="82" rx="2" ry="2"/><rect class="c" x="562" y="98" rx="2" ry="2"/><rect class="c" x="578" y="2" rx="2" ry="2"/><rect class="c" x="578" y="18" rx="2" ry="2"/><rect class="c" x="578" y="34" rx="2" ry="2"/><rect class="c" x="578" y="50" rx="2" ry="2"/><rect class="c" x="578" y="66" rx="2" ry="2"/><rect class="c" x="578" y="82" rx="2" ry="2"/><rect class="c" x="578" y="98" rx="2" ry="2"/><rect class="c" x="594" y="2" rx="2" ry="2"/><rect class="c" x="594" y="18" rx="2" ry="2"/><rect class="c" x="594" y="34" rx="2" ry="2"/><rect class="c" x="594" y="50" rx="2" ry="2"/><rect class="c" x="594" y="66" rx="2" ry="2"/><rect class="c" x="594" y="82" rx="2" ry="2"/><rect class="c" x="594" y="98" rx="2" ry="2"/><rect class="c" x="610" y="2" rx="2" ry="2"/><rect class="c" x="610" y="18" rx="2" ry="2"/><rect class="c c1u" x="610" y="34" rx="2" ry="2"/><rect class="c c1v" x="610" y="50" rx="2" ry="2"/><rect class="c c1w" x="610" y="66" rx="2" ry="2"/><rect class="c" x="610" y="82" rx="2" ry="2"/><rect class="c" x="610" y="98" rx="2" ry="2"/><rect class="c" x="626" y="2" rx="2" ry="2"/><rect class="c" x="626" y="18" rx="2" ry="2"/><rect class="c c1x" x="626" y="34" rx="2" ry="2"/><rect class="c" x="626" y="50" rx="2" ry="2"/><rect class="c" x="626" y="66" rx="2" ry="2"/><rect class="c" x="626" y="82" rx="2" ry="2"/><rect class="c" x="626" y="98" rx="2" ry="2"/><rect class="c" x="642" y="2" rx="2" ry="2"/><rect class="c c1y" x="642" y="18" rx="2" ry="2"/><rect class="c" x="642" y="34" rx="2" ry="2"/><rect class="c" x="642" y="50" rx="2" ry="2"/><rect class="c c1z" x="642" y="66" rx="2" ry="2"/><rect class="c" x="642" y="82" rx="2" ry="2"/><rect class="c" x="642" y="98" rx="2" ry="2"/><rect class="c" x="658" y="2" rx="2" ry="2"/><rect class="c" x="658" y="18" rx="2" ry="2"/><rect class="c" x="658" y="34" rx="2" ry="2"/><rect class="c" x="658" y="50" rx="2" ry="2"/><rect class="c c20" x="658" y="66" rx="2" ry="2"/><rect class="c" x="658" y="82" rx="2" ry="2"/><rect class="c" x="658" y="98" rx="2" ry="2"/><rect class="c" x="674" y="2" rx="2" ry="2"/><rect class="c c21" x="674" y="18" rx="2" ry="2"/><rect class="c" x="674" y="34" rx="2" ry="2"/><rect class="c" x="674" y="50" rx="2" ry="2"/><rect class="c c22" x="674" y="66" rx="2" ry="2"/><rect class="c c23" x="674" y="82" rx="2" ry="2"/><rect class="c" x="674" y="98" rx="2" ry="2"/><rect class="c" x="690" y="2" rx="2" ry="2"/><rect class="c c24" x="690" y="18" rx="2" ry="2"/><rect class="c" x="690" y="34" rx="2" ry="2"/><rect class="c c25" x="690" y="50" rx="2" ry="2"/><rect class="c" x="690" y="66" rx="2" ry="2"/><rect class="c" x="690" y="82" rx="2" ry="2"/><rect class="c" x="690" y="98" rx="2" ry="2"/><rect class="c" x="706" y="2" rx="2" ry="2"/><rect class="c" x="706" y="18" rx="2" ry="2"/><rect class="c" x="706" y="34" rx="2" ry="2"/><rect class="c" x="706" y="50" rx="2" ry="2"/><rect class="c" x="706" y="66" rx="2" ry="2"/><rect class="c" x="706" y="82" rx="2" ry="2"/><rect class="c" x="706" y="98" rx="2" ry="2"/><rect class="c" x="722" y="2" rx="2" ry="2"/><rect class="c" x="722" y="18" rx="2" ry="2"/><rect class="c c26" x="722" y="34" rx="2" ry="2"/><rect class="c" x="722" y="50" rx="2" ry="2"/><rect class="c" x="722" y="66" rx="2" ry="2"/><rect class="c c27" x="722" y="82" rx="2" ry="2"/><rect class="c" x="722" y="98" rx="2" ry="2"/><rect class="c" x="738" y="2" rx="2" ry="2"/><rect class="c" x="738" y="18" rx="2" ry="2"/><rect class="c" x="738" y="34" rx="2" ry="2"/><rect class="c" x="738" y="50" rx="2" ry="2"/><rect class="c c28" x="738" y="66" rx="2" ry="2"/><rect class="c c29" x="738" y="82" rx="2" ry="2"/><rect class="c" x="738" y="98" rx="2" ry="2"/><rect class="c" x="754" y="2" rx="2" ry="2"/><rect class="c c2a" x="754" y="18" rx="2" ry="2"/><rect class="c c2b" x="754" y="34" rx="2" ry="2"/><rect class="c" x="754" y="50" rx="2" ry="2"/><rect class="c c2c" x="754" y="66" rx="2" ry="2"/><rect class="c" x="754" y="82" rx="2" ry="2"/><rect class="c" x="754" y="98" rx="2" ry="2"/><rect class="c" x="770" y="2" rx="2" ry="2"/><rect class="c" x="770" y="18" rx="2" ry="2"/><rect class="c c2d" x="770" y="34" rx="2" ry="2"/><rect class="c c2e" x="770" y="50" rx="2" ry="2"/><rect class="c" x="770" y="66" rx="2" ry="2"/><rect class="c c2f" x="770" y="82" rx="2" ry="2"/><rect class="c" x="770" y="98" rx="2" ry="2"/><rect class="c" x="786" y="2" rx="2" ry="2"/><rect class="c c2g" x="786" y="18" rx="2" ry="2"/><rect class="c c2h" x="786" y="34" rx="2" ry="2"/><rect class="c" x="786" y="50" rx="2" ry="2"/><rect class="c c2i" x="786" y="66" rx="2" ry="2"/><rect class="c" x="786" y="82" rx="2" ry="2"/><rect class="c" x="786" y="98" rx="2" ry="2"/><rect class="c" x="802" y="2" rx="2" ry="2"/><rect class="c" x="802" y="18" rx="2" ry="2"/><rect class="c" x="802" y="34" rx="2" ry="2"/><rect class="c" x="802" y="50" rx="2" ry="2"/><rect class="c" x="802" y="66" rx="2" ry="2"/><rect class="c" x="802" y="82" rx="2" ry="2"/><rect class="c" x="802" y="98" rx="2" ry="2"/><rect class="c" x="818" y="2" rx="2" ry="2"/><rect class="c" x="818" y="18" rx="2" ry="2"/><rect class="c c2j" x="818" y="34" rx="2" ry="2"/><rect class="c" x="818" y="50" rx="2" ry="2"/><rect class="c c2k" x="818" y="66" rx="2" ry="2"/><rect class="c" x="818" y="82" rx="2" ry="2"/><rect class="c" x="818" y="98" rx="2" ry="2"/><rect class="c" x="834" y="2" rx="2" ry="2"/><rect class="c" x="834" y="18" rx="2" ry="2"/><rect class="c" x="834" y="34" rx="2" ry="2"/><rect class="c" x="834" y="50" rx="2" ry="2"/><rect class="c" x="834" y="66" rx="2" ry="2"/><rect class="u u0" height="12" width="730.1" x="0.0" y="144"/><rect class="u u1" height="12" width="73.5" x="729.5" y="144"/><rect class="u u2" height="12" width="9.7" x="802.4" y="144"/><rect class="u u3" height="12" width="37.1" x="811.5" y="144"/><rect class="s s0" x="0.8" y="0.8" width="14.4" height="14.4" rx="4.5" ry="4.5"/><rect class="s s1" x="1.8" y="1.8" width="12.3" height="12.3" rx="4.1" ry="4.1"/><rect class="s s2" x="2.6" y="2.6" width="10.8" height="10.8" rx="3.6" ry="3.6"/><rect class="s s3" x="3.0" y="3.0" width="9.9" height="9.9" rx="3.3" ry="3.3"/></svg>